<svg viewBox="0 0 101 73" fill="none" xmlns="http://www.w3.org/2000/svg">
    <path d="M0 62.64L16.64 0.623997H18.944L2.304 62.64H0ZM27.2575 54.704C26.0202 54.704 24.8255 54.4693 23.6735 54C22.5642 53.5307 21.6468 52.8693 20.9215 52.016C20.2388 51.1627 19.8975 50.1813 19.8975 49.072C19.8975 48.2187 20.1748 47.4507 20.7295 46.768C21.2842 46.0427 22.1162 45.68 23.2255 45.68C24.0362 45.68 24.7188 45.936 25.2735 46.448C25.8282 46.9173 26.1055 47.536 26.1055 48.304C26.1055 48.688 26.0628 49.0293 25.9775 49.328C25.8922 49.584 25.8068 49.8187 25.7215 50.032C25.6362 50.288 25.5508 50.5227 25.4655 50.736C25.4228 50.9493 25.4015 51.1627 25.4015 51.376C25.4015 51.8027 25.5508 52.208 25.8495 52.592C26.1908 52.976 26.7882 53.168 27.6415 53.168C28.8362 53.168 29.7535 52.8907 30.3935 52.336C31.0335 51.7387 31.4815 51.0347 31.7375 50.224C32.0362 49.4133 32.2068 48.624 32.2495 47.856C32.3348 47.088 32.3775 46.512 32.3775 46.128V17.072C32.3775 14.9387 32.2282 13.424 31.9295 12.528C31.6308 11.632 31.0762 11.056 30.2655 10.8C29.4975 10.5013 28.3668 10.2667 26.8735 10.096L25.5935 9.968V8.368L35.0655 8.56H35.1295L44.6015 8.368V9.968L43.3215 10.096C41.8708 10.2667 40.7402 10.5013 39.9295 10.8C39.1188 11.056 38.5642 11.632 38.2655 12.528C37.9668 13.424 37.8175 14.9387 37.8175 17.072V44.976C37.8175 47.152 37.4975 48.88 36.8575 50.16C36.2175 51.44 35.3642 52.4213 34.2975 53.104C33.2735 53.744 32.1428 54.1707 30.9055 54.384C29.6682 54.5973 28.4522 54.704 27.2575 54.704ZM46.5 62.64L63.14 0.623997H65.444L48.804 62.64H46.5ZM81.5655 45.552C80.1148 45.552 78.7068 45.3387 77.3415 44.912C76.1895 45.168 75.1015 45.616 74.0775 46.256C73.0962 46.8533 72.6055 47.664 72.6055 48.688C72.6055 49.584 72.9255 50.2667 73.5655 50.736C74.2055 51.1627 75.0375 51.4613 76.0615 51.632C77.0855 51.76 78.1948 51.8667 79.3895 51.952L82.2055 52.08C84.8935 52.208 87.3255 52.5067 89.5015 52.976C91.6775 53.4027 93.4055 54.256 94.6855 55.536C96.0082 56.816 96.6695 58.7787 96.6695 61.424C96.6695 63.856 95.9442 65.904 94.4935 67.568C93.0855 69.2747 91.2295 70.576 88.9255 71.472C86.6642 72.368 84.2108 72.816 81.5655 72.816C78.9202 72.816 76.4028 72.4533 74.0135 71.728C71.6668 71.0027 69.7468 69.8933 68.2535 68.4C66.8028 66.9067 66.0775 64.9867 66.0775 62.64C66.0775 61.2747 66.3975 60.144 67.0375 59.248C67.7202 58.352 68.5948 57.904 69.6615 57.904C70.3868 57.904 71.0055 58.096 71.5175 58.48C72.0295 58.9067 72.2855 59.5253 72.2855 60.336C72.2855 61.0613 72.1575 61.6373 71.9015 62.064C71.6455 62.5333 71.3682 63.0027 71.0695 63.472C70.8135 63.9413 70.6855 64.5387 70.6855 65.264C70.6855 66.7147 71.1762 67.8667 72.1575 68.72C73.1815 69.616 74.5042 70.256 76.1255 70.64C77.7895 71.024 79.6028 71.216 81.5655 71.216C83.7415 71.216 85.7468 70.896 87.5815 70.256C89.4162 69.616 90.8882 68.656 91.9975 67.376C93.1495 66.1387 93.7255 64.6027 93.7255 62.768C93.7255 60.848 92.9575 59.44 91.4215 58.544C89.9282 57.6907 87.6028 57.1787 84.4455 57.008L77.9175 56.688C76.6375 56.6027 75.2722 56.432 73.8215 56.176C72.4135 55.92 71.2188 55.3867 70.2375 54.576C69.2562 53.808 68.7655 52.6347 68.7655 51.056C68.7655 49.392 69.4482 47.9413 70.8135 46.704C72.2215 45.4667 73.7788 44.6133 75.4855 44.144C73.7788 43.248 72.3922 42.032 71.3255 40.496C70.2588 38.96 69.7255 37.2107 69.7255 35.248C69.7255 33.2853 70.2375 31.536 71.2615 30C72.3282 28.464 73.7575 27.248 75.5495 26.352C77.3415 25.4133 79.3468 24.944 81.5655 24.944C84.1255 24.944 86.4082 25.5627 88.4135 26.8C89.3095 25.5627 90.3975 24.688 91.6775 24.176C92.9575 23.6213 94.2375 23.344 95.5175 23.344C96.8402 23.344 97.9708 23.6853 98.9095 24.368C99.8908 25.008 100.382 25.8827 100.382 26.992C100.382 27.888 100.083 28.592 99.4855 29.104C98.9308 29.5733 98.3122 29.808 97.6295 29.808C96.0508 29.808 95.0908 28.912 94.7495 27.12C94.6642 26.608 94.4722 26.1813 94.1735 25.84C93.9175 25.4987 93.5122 25.328 92.9575 25.328C92.2748 25.328 91.6348 25.584 91.0375 26.096C90.4828 26.5653 90.0135 27.0773 89.6295 27.632C90.7815 28.5707 91.6988 29.7013 92.3815 31.024C93.0642 32.3467 93.4055 33.7547 93.4055 35.248C93.4055 37.168 92.8722 38.9173 91.8055 40.496C90.7815 42.032 89.3735 43.2693 87.5815 44.208C85.7895 45.104 83.7842 45.552 81.5655 45.552ZM81.5655 43.952C84.0828 43.952 85.8535 43.12 86.8775 41.456C87.9442 39.792 88.4775 37.7227 88.4775 35.248C88.4775 32.7733 87.9442 30.704 86.8775 29.04C85.8535 27.376 84.0828 26.544 81.5655 26.544C79.0908 26.544 77.3202 27.376 76.2535 29.04C75.1868 30.704 74.6535 32.7733 74.6535 35.248C74.6535 37.7227 75.1868 39.792 76.2535 41.456C77.3202 43.12 79.0908 43.952 81.5655 43.952Z"
          fill="currentColor"
    />
</svg>
