<svg width="32" height="32" viewBox="0 0 32 32" fill="none" xmlns="http://www.w3.org/2000/svg">
<path d="M0 0H32V32H0V0Z" fill="black"/>
<path d="M7.78711 21.6484C7.5918 21.6745 7.40299 21.707 7.2207 21.7461C7.05143 21.7852 6.87565 21.8307 6.69336 21.8828C6.61523 21.9089 6.53711 21.9284 6.45898 21.9414C6.38086 21.9544 6.29622 21.974 6.20508 22C5.9707 21.9479 5.74284 21.9089 5.52148 21.8828C5.31315 21.8568 5.12435 21.8438 4.95508 21.8438L4.66211 21.7656C4.50586 21.7135 4.38867 21.6745 4.31055 21.6484C4.23242 21.6094 4.1543 21.5833 4.07617 21.5703C4.01107 21.5443 3.92643 21.5247 3.82227 21.5117C3.73112 21.4987 3.5944 21.4792 3.41211 21.4531C3.19076 21.5443 2.97591 21.5898 2.76758 21.5898C2.62435 21.5898 2.47461 21.5703 2.31836 21.5312C2.16211 21.4792 2.00586 21.388 1.84961 21.2578C1.69336 21.1146 1.54362 20.9258 1.40039 20.6914C1.25716 20.444 1.13346 20.1315 1.0293 19.7539C1.06836 19.4544 1.11393 19.194 1.16602 18.9727C1.2181 18.7513 1.27018 18.5755 1.32227 18.4453L1.47852 18.2695C1.71289 18.1784 1.97982 18.1328 2.2793 18.1328C2.56576 18.1328 2.8457 18.1784 3.11914 18.2695C3.39258 18.3607 3.66602 18.4583 3.93945 18.5625C4.05664 18.6146 4.14128 18.6536 4.19336 18.6797C4.24544 18.7057 4.28451 18.7253 4.31055 18.7383C4.33659 18.7513 4.36914 18.7578 4.4082 18.7578C4.46029 18.7578 4.54492 18.7578 4.66211 18.7578C4.72721 18.7578 4.78581 18.7578 4.83789 18.7578C4.90299 18.7448 4.9681 18.7318 5.0332 18.7188L5.26758 18.7383C5.35872 18.7904 5.4694 18.8164 5.59961 18.8164C5.69076 18.8164 5.7819 18.8034 5.87305 18.7773C5.97721 18.7513 6.08138 18.7253 6.18555 18.6992C6.28971 18.6602 6.38086 18.6341 6.45898 18.6211C6.53711 18.6081 6.60872 18.5885 6.67383 18.5625L6.86914 18.3867C6.99935 18.3346 7.09701 18.276 7.16211 18.2109C7.24023 18.1458 7.30534 18.0742 7.35742 17.9961C7.40951 17.9049 7.45508 17.8138 7.49414 17.7227C7.54622 17.6315 7.61133 17.5339 7.68945 17.4297C7.75456 17.3516 7.81315 17.2734 7.86523 17.1953C7.93034 17.1172 7.99544 17.0456 8.06055 16.9805V16.7852C8.26888 16.3034 8.45117 15.8151 8.60742 15.3203C8.76367 14.8255 8.90039 14.3307 9.01758 13.8359C9.13477 13.3411 9.23242 12.8594 9.31055 12.3906C9.40169 11.9219 9.47982 11.4987 9.54492 11.1211C9.50586 11.1211 9.4668 11.1211 9.42773 11.1211C9.38867 11.1081 9.35612 11.1016 9.33008 11.1016C8.93945 11.1016 8.62044 11.1081 8.37305 11.1211C8.12565 11.1341 7.89779 11.1536 7.68945 11.1797C7.48112 11.2057 7.25977 11.2448 7.02539 11.2969C6.80404 11.3359 6.51758 11.388 6.16602 11.4531L5.83398 11.5117C5.58659 11.6289 5.3457 11.7396 5.11133 11.8438C4.88997 11.9349 4.6556 11.9805 4.4082 11.9805C4.01758 11.9805 3.67904 11.8242 3.39258 11.5117C3.0931 11.3294 2.92383 11.069 2.88477 10.7305C2.81966 10.6133 2.79362 10.5026 2.80664 10.3984C2.75456 10.2161 2.72201 10.0534 2.70898 9.91016C2.70898 9.75391 2.70898 9.61068 2.70898 9.48047L2.72852 9.14844H3.02148C3.09961 9.07031 3.15169 9.01172 3.17773 8.97266C3.2168 8.93359 3.24284 8.88802 3.25586 8.83594L3.31445 8.64062L3.50977 8.62109C3.7832 8.58203 4.06315 8.53646 4.34961 8.48438C4.63607 8.43229 4.92904 8.3737 5.22852 8.30859C5.52799 8.25651 5.7819 8.21094 5.99023 8.17188C6.21159 8.13281 6.41992 8.10677 6.61523 8.09375C6.81055 8.06771 7.01237 8.05469 7.2207 8.05469C7.42904 8.04167 7.66992 8.03516 7.94336 8.03516C8.04753 8.03516 8.13867 8.04167 8.2168 8.05469C8.30794 8.05469 8.39909 8.05469 8.49023 8.05469C8.54232 7.98958 8.5944 7.95052 8.64648 7.9375C8.69857 7.92448 8.73763 7.91797 8.76367 7.91797C8.85482 7.93099 8.91992 7.94401 8.95898 7.95703C9.01107 7.97005 9.05013 7.98307 9.07617 7.99609C9.51888 7.91797 9.92253 7.8724 10.2871 7.85938C10.6647 7.83333 11.0033 7.82031 11.3027 7.82031C11.446 7.82031 11.5892 7.82031 11.7324 7.82031C11.8757 7.82031 12.0124 7.82682 12.1426 7.83984H13.4121C13.4772 7.82682 13.5358 7.82031 13.5879 7.82031C13.653 7.82031 13.7181 7.82031 13.7832 7.82031C13.9134 7.82031 14.0111 7.82031 14.0762 7.82031C14.1543 7.82031 14.2194 7.82682 14.2715 7.83984C14.3236 7.83984 14.3757 7.84635 14.4277 7.85938C14.4798 7.85938 14.5514 7.86589 14.6426 7.87891C14.8639 7.91797 15.0658 7.95052 15.248 7.97656C15.4303 8.0026 15.6126 8.01562 15.7949 8.01562L16.166 7.99609L16.2246 8.23047L16.4004 8.48438C16.4395 8.5625 16.4915 8.63411 16.5566 8.69922C16.6217 8.76432 16.6934 8.82943 16.7715 8.89453C16.9277 9.03776 17.0775 9.22005 17.2207 9.44141C17.377 9.64974 17.4355 9.95573 17.3965 10.3594L17.2207 10.5938C17.1686 10.6198 17.1165 10.6523 17.0645 10.6914C17.0254 10.7305 16.9798 10.776 16.9277 10.8281L16.7324 11.0039C16.5632 11.0169 16.4199 11.0299 16.3027 11.043C16.1855 11.043 16.0553 11.043 15.9121 11.043C15.6777 11.043 15.4368 11.0365 15.1895 11.0234C14.9551 11.0104 14.7077 10.9974 14.4473 10.9844C14.304 10.9714 14.1934 10.9648 14.1152 10.9648C14.0371 10.9648 13.9655 10.9648 13.9004 10.9648C13.8353 10.9648 13.7572 10.9714 13.666 10.9844C13.5879 10.9844 13.4837 10.9844 13.3535 10.9844C13.2233 10.9844 13.1257 10.9844 13.0605 10.9844C13.0085 10.9844 12.9303 10.9909 12.8262 11.0039C12.8001 11.4206 12.748 11.7852 12.6699 12.0977C12.6048 12.3971 12.5202 12.7161 12.416 13.0547C12.1686 14.3307 11.8626 15.5352 11.498 16.668C11.1465 17.8008 10.7493 18.8229 10.3066 19.7344C9.88997 20.1771 9.49284 20.5742 9.11523 20.9258C8.73763 21.2643 8.31445 21.5052 7.8457 21.6484H7.78711Z" fill="white"/>
<path d="M14.7988 17.3711C14.7988 17.2279 14.8184 17.0977 14.8574 16.9805C14.8965 16.8633 14.903 16.7135 14.877 16.5312C15.2806 15.6719 15.7363 14.8776 16.2441 14.1484C16.765 13.4062 17.3835 12.7552 18.0996 12.1953C18.2168 12.1042 18.3079 12.013 18.373 11.9219C18.4512 11.8177 18.5228 11.7201 18.5879 11.6289C18.666 11.5378 18.7507 11.4596 18.8418 11.3945C18.9329 11.3164 19.0501 11.2643 19.1934 11.2383C19.5189 10.8607 19.9095 10.5156 20.3652 10.2031C20.821 9.89062 21.2962 9.59115 21.791 9.30469C22.2858 9.01823 22.7806 8.72526 23.2754 8.42578C23.7832 8.1263 24.2389 7.80078 24.6426 7.44922C24.7858 7.54036 24.8965 7.57292 24.9746 7.54688C25.0658 7.50781 25.1569 7.5013 25.248 7.52734C25.3652 7.77474 25.515 7.95052 25.6973 8.05469C25.8926 8.14583 26.0879 8.24349 26.2832 8.34766C26.4915 8.4388 26.6803 8.55599 26.8496 8.69922C27.0319 8.82943 27.1686 9.01172 27.2598 9.24609C27.1686 9.24609 27.123 9.27865 27.123 9.34375C27.1361 9.40885 27.1556 9.48047 27.1816 9.55859C27.2077 9.63672 27.2207 9.70833 27.2207 9.77344C27.2207 9.83854 27.1621 9.87109 27.0449 9.87109C27.0449 9.96224 27.0905 10.0078 27.1816 10.0078C27.2728 10.0078 27.3184 10.0534 27.3184 10.1445C27.3184 10.2227 27.2988 10.2878 27.2598 10.3398C27.2337 10.3789 27.2337 10.4505 27.2598 10.5547C26.9473 10.763 26.5957 10.9648 26.2051 11.1602C25.8275 11.3424 25.4238 11.5378 24.9941 11.7461C24.5775 11.9544 24.1478 12.1823 23.7051 12.4297C23.2754 12.6641 22.8457 12.9375 22.416 13.25C21.9863 13.5625 21.5501 13.9076 21.1074 14.2852C20.6777 14.6628 20.2611 15.0664 19.8574 15.4961C19.4538 15.9128 19.0762 16.349 18.7246 16.8047C18.373 17.2474 18.0736 17.6836 17.8262 18.1133C17.8522 18.1784 17.8848 18.237 17.9238 18.2891C17.9759 18.3411 18.015 18.3997 18.041 18.4648C18.5358 18.4909 18.998 18.4909 19.4277 18.4648C19.8574 18.4258 20.2871 18.4518 20.7168 18.543C20.7689 18.5039 20.8014 18.4518 20.8145 18.3867C20.8275 18.3216 20.8665 18.276 20.9316 18.25C21.8171 18.1589 22.6439 18.0156 23.4121 17.8203C24.1803 17.612 24.9616 17.4036 25.7559 17.1953C25.5215 17.1042 25.3132 17.0326 25.1309 16.9805C25.0527 16.9023 25.0527 16.8372 25.1309 16.7852C25.222 16.7201 25.2936 16.6549 25.3457 16.5898C25.1374 16.4727 24.9616 16.3164 24.8184 16.1211C24.6882 15.9258 24.61 15.6719 24.584 15.3594C24.6751 15.2812 24.7207 15.1901 24.7207 15.0859C24.7207 14.9818 24.6751 14.8971 24.584 14.832C24.5189 14.806 24.4798 14.806 24.4668 14.832C24.4538 14.8581 24.4408 14.8841 24.4277 14.9102C24.4277 14.9362 24.4147 14.9622 24.3887 14.9883C24.3757 15.0143 24.3431 15.0143 24.291 14.9883C24.304 14.8451 24.3366 14.7279 24.3887 14.6367C24.4408 14.5456 24.4798 14.4349 24.5059 14.3047L26.127 13.2305C26.2962 13.3607 26.5046 13.4974 26.752 13.6406C26.9993 13.7839 27.2598 13.9271 27.5332 14.0703C27.8066 14.2135 28.0866 14.3633 28.373 14.5195C28.6595 14.6628 28.9264 14.806 29.1738 14.9492C29.4082 15.0534 29.61 15.1836 29.7793 15.3398C29.9486 15.4831 30.1113 15.6393 30.2676 15.8086C30.4238 15.9648 30.5801 16.1211 30.7363 16.2773C30.8926 16.4336 31.0814 16.5638 31.3027 16.668C31.2767 16.8763 31.2897 17.0456 31.3418 17.1758C31.3939 17.306 31.4069 17.4622 31.3809 17.6445C31.1335 18.0872 30.834 18.4648 30.4824 18.7773C30.1309 19.0768 29.7337 19.3372 29.291 19.5586C28.8613 19.7799 28.3991 19.9688 27.9043 20.125C27.4095 20.2682 26.9017 20.4115 26.3809 20.5547C25.86 20.6849 25.3327 20.8281 24.7988 20.9844C24.278 21.1276 23.7637 21.2969 23.2559 21.4922C23.0345 21.4922 22.8457 21.4987 22.6895 21.5117C22.5332 21.5247 22.3835 21.5443 22.2402 21.5703C22.097 21.5964 21.9538 21.6224 21.8105 21.6484C21.6673 21.6745 21.5111 21.694 21.3418 21.707C21.2767 21.694 21.2311 21.707 21.2051 21.7461C21.1921 21.7852 21.166 21.8177 21.127 21.8438C20.8665 21.8828 20.6322 21.9023 20.4238 21.9023C20.2155 21.9023 20.0397 21.9023 19.8965 21.9023C19.7142 21.9023 19.5254 21.9284 19.3301 21.9805C19.1348 22.0326 18.9525 22.0521 18.7832 22.0391C17.6113 21.987 16.6934 21.5703 16.0293 20.7891C15.3652 20.0078 15.0007 18.9336 14.9355 17.5664C14.9486 17.5013 14.9355 17.4622 14.8965 17.4492C14.8574 17.4232 14.8249 17.3971 14.7988 17.3711Z" fill="white"/>
</svg>
